<?xml version="1.0" encoding="UTF-8"?> <svg xmlns="http://www.w3.org/2000/svg" width="200" height="200" viewBox="0 0 200 200" fill="none"><rect width="200" height="200" fill="#241D17"></rect><g clip-path="url(#clip0)"><path d="M31.3001 54.3376C30.1871 54.6753 29.3567 55.1373 28.7383 55.9015C27.855 56.9677 27.8196 57.1277 27.8903 60.3087C27.9256 62.1391 27.9256 65.3734 27.8903 67.5592C27.855 71.4688 27.855 71.4688 27.1306 71.2378C25.6819 70.7402 22.219 70.9712 21.636 71.611C21.1413 72.1441 21.1413 72.1441 21.7067 71.9486C22.1307 71.8242 22.272 71.8775 22.166 72.1441C22.0954 72.3751 21.8304 72.5351 21.636 72.4817C21.4063 72.4462 21.265 73.0504 21.265 74.1344C21.265 75.0941 21.159 76.4269 21.0707 77.0489C20.947 77.973 21.0707 78.3817 21.7597 79.1103C22.5547 79.9633 22.8197 80.0344 25.1872 80.0344C27.3956 80.0344 27.7843 80.141 27.9256 80.6031C28.12 81.3672 27.8903 119.184 27.696 119.717C27.5899 120.019 26.8479 120.143 25.4169 120.143C23.9858 120.143 22.9434 120.339 22.2897 120.712C21.3003 121.316 21.265 121.37 21.2297 123.964C21.159 129.242 21.3003 129.438 25.4522 129.438H28.226L28.12 135.8C27.9963 144.756 28.2436 145.147 34.6393 145.502C44.1267 146 71.8999 146.195 76.4581 145.805C78.0482 145.68 79.4616 145.645 80.9986 145.68C83.1364 145.716 83.6664 145.68 84.0551 145.307C84.3908 145.04 84.5145 145.04 84.5145 145.307C84.5145 145.502 84.6735 145.68 84.8502 145.68C85.0445 145.68 85.1858 145.378 85.1858 144.987C85.1858 144.614 85.0622 144.418 84.8502 144.525C84.6911 144.632 84.5145 144.561 84.5145 144.365C84.5145 143.761 85.3095 144.17 85.6628 144.969C85.9985 145.698 86.0869 145.698 93.4012 145.698C97.4824 145.698 103.083 145.805 105.857 145.893C113.33 146.195 125.044 145.769 125.044 145.165C125.044 144.898 125.203 144.703 125.415 144.703C125.609 144.703 125.715 144.934 125.574 145.2C125.45 145.627 125.803 145.698 127.941 145.698C129.319 145.733 136.934 145.769 144.884 145.805C152.799 145.84 159.177 145.769 159.089 145.609C159.018 145.485 159.195 145.378 159.477 145.378C159.813 145.378 159.901 145.538 159.778 145.769C159.389 146.391 168.011 145.876 169.46 145.147C171.862 143.956 172.004 143.459 172.021 136.262C172.057 132.707 172.145 129.597 172.286 129.295C172.41 128.904 172.675 128.833 173.205 128.993C174.159 129.331 177.746 129.153 178.417 128.798C178.841 128.531 178.806 128.496 178.311 128.46C177.94 128.46 177.746 128.3 177.852 128.034C177.922 127.838 178.152 127.66 178.311 127.696C178.735 127.803 179.071 122.489 178.7 121.832C177.905 120.41 177.781 120.339 174.777 120.179L171.774 120.019L171.703 100.027L171.597 80.0699H174.53C177.233 80.0699 177.463 79.9988 178.258 79.1458C178.947 78.4172 179.088 78.0263 178.947 77.0844C178.841 76.4624 178.753 75.1296 178.753 74.2055C178.753 73.086 178.629 72.4817 178.382 72.5528C178.187 72.5884 177.922 72.4284 177.852 72.1796C177.746 71.9131 177.887 71.842 178.311 71.9842C178.841 72.1796 178.841 72.1441 178.417 71.6821C177.887 71.1134 174.636 70.8468 173.152 71.2556C171.668 71.6465 171.544 71.2911 171.332 65.3201C170.961 56.097 170.272 54.7819 165.767 54.9063C164.442 54.9419 163.205 54.8708 162.993 54.7819C162.64 54.462 157.039 54.0711 154.213 54.0711C153.117 54.1066 151.209 54.1066 149.937 54.1066C148.683 54.1066 142.163 54.1777 135.432 54.2133C128.736 54.2488 121.987 54.3199 120.432 54.3732C118.878 54.4265 116.97 54.4976 116.157 54.4798C103.366 54.2843 92.7652 54.2133 92.1998 54.3554C91.7758 54.462 91.4754 54.6575 91.5461 54.7819C91.5814 54.9063 91.4754 55.0485 91.2811 55.084C91.1221 55.1551 90.9454 54.9774 90.9454 54.7464C90.9454 54.4443 89.3554 54.3554 84.1965 54.3554C78.9492 54.3554 77.4828 54.462 77.5005 54.7464C77.5712 54.9774 77.3768 55.1729 77.0765 55.1729C76.8115 55.1729 76.6525 55.0485 76.7408 54.8708C77.1295 54.2666 74.9917 54.1777 59.9744 54.1777C51.6353 54.1777 42.1479 54.1066 38.8794 54.0533C34.5509 53.9467 32.4838 54.0355 31.3001 54.3376ZM98.2774 63.312C143.382 63.383 158.311 63.2764 158.311 63.0099C158.311 62.7077 158.417 62.7433 158.576 63.0099C158.7 63.2409 159.566 63.4719 160.449 63.5074L162.092 63.6141L162.128 65.2668C162.198 67.9146 162.622 94.6954 162.587 95.2641C162.481 98.0896 162.587 119.397 162.746 126.825C162.905 134.253 162.87 136.368 162.552 136.564C162.322 136.688 161.068 136.759 159.813 136.724C157.375 136.617 148.471 136.617 114.337 136.653C96.6343 136.688 94.3376 136.759 94.4966 137.186C94.6202 137.523 94.4612 137.683 94.0372 137.683C93.6132 137.683 93.4365 137.523 93.5779 137.186C93.7369 136.759 91.6698 136.724 77.0058 136.724C67.8187 136.759 57.5716 136.848 54.2325 136.955C50.9286 137.079 48.2432 137.079 48.2432 136.919C48.2432 136.528 47.0948 136.653 46.6531 137.079C46.3528 137.381 46.1584 137.417 45.9994 137.15C45.8758 136.884 44.2857 136.759 41.6886 136.724C39.4448 136.688 37.4661 136.599 37.3424 136.493C37.1834 136.386 37.042 135.142 37.042 133.649C37.042 131.428 36.9714 131.037 36.5473 131.197C36.2117 131.321 36.0527 131.161 36.0527 130.735C36.0527 130.308 36.2117 130.131 36.5473 130.273C36.9714 130.433 37.042 128.975 37.0774 118.437C37.201 78.7904 37.201 79.2525 36.7417 79.0925C36.4767 78.9859 36.406 78.8615 36.6357 78.7193C37.1304 78.4172 37.201 74.4188 36.7417 72.9438C36.512 72.2863 36.4413 71.5577 36.618 71.3266C36.7417 71.0956 36.883 69.2297 36.9537 67.2571C36.989 65.2312 37.0244 63.4186 37.0244 63.152C37.0597 62.8499 37.254 62.7788 37.6427 62.9921C37.9431 63.1165 65.2393 63.2764 98.2774 63.312Z" fill="url(#paint0_linear)"></path><path d="M141.616 71.6643L134.602 71.7354L133.312 72.9971C132.217 74.0634 131.987 74.4899 131.828 76.0537C131.457 79.1991 131.457 83.6063 131.757 90.6436C131.916 94.3933 132.022 98.0363 131.952 98.7649C131.881 99.4935 131.828 105.589 131.828 112.36L131.793 124.622L132.588 125.919C133.012 126.612 133.842 127.376 134.425 127.643C135.75 128.211 148.983 128.336 150.732 127.803C152.34 127.305 153.63 125.652 153.824 123.822C154.16 120.605 154.018 96.1171 153.665 95.193L153.294 94.3044H148.771C145.715 94.3044 144.124 94.4288 143.859 94.6954C143.594 94.9619 143.471 96.2592 143.471 98.2673V101.448L144.46 102.017L145.45 102.621L145.485 106.335C145.485 108.397 145.485 111.702 145.45 113.764C145.414 115.985 145.556 117.709 145.785 118.064C146.05 118.491 146.086 118.917 145.821 119.557C145.485 120.445 145.45 120.445 142.994 120.321C140.185 120.197 139.672 119.983 140.185 119.326C140.556 118.864 140.715 95.6906 140.414 84.797L140.255 79.4657L142.623 79.3413C146.156 79.1814 146.121 79.1458 146.121 81.5271C146.121 82.6822 146.28 83.7485 146.51 83.9795C146.81 84.2816 146.81 84.3705 146.51 84.3705C145.785 84.3705 146.086 85.2946 146.881 85.4723C148.064 85.7033 152.711 85.5078 153.047 85.1702C153.17 85.0102 153.382 82.4512 153.471 79.4657L153.594 74.0278L152.676 73.1037C151.88 72.304 151.191 72.0375 148.983 71.6821C148.771 71.611 145.432 71.611 141.616 71.6643ZM47.4482 72.304C47.1478 72.6061 47.0595 74.4899 47.1478 79.0925C47.2538 86.5208 47.2185 85.9521 47.6072 85.3301C47.8722 84.9392 47.9429 85.028 47.9429 85.7211C47.9429 86.1831 47.7839 86.6452 47.5542 86.7162C47.2538 86.8229 47.1655 88.2445 47.1655 91.6566C47.1302 95.7972 47.0595 96.5613 46.5648 97.0589C46.0701 97.521 45.9641 98.2496 45.9641 101.306C45.9641 103.332 46.0701 104.878 46.1938 104.789C46.4941 104.487 47.6072 105.518 47.6072 106.122C47.6072 106.353 47.5012 106.549 47.3775 106.549C47.2185 106.549 47.0772 111.098 47.0065 116.66C46.9712 122.223 47.0772 126.772 47.2008 126.772C47.3598 126.772 47.6602 127.145 47.8545 127.607C48.2255 128.407 48.3492 128.442 51.5117 128.442C56.3879 128.442 56.1229 129.047 56.0346 116.98C55.9639 111.702 55.9109 107.242 55.8402 107.064C55.4692 105.642 55.6459 105.571 60.3278 105.571C65.3983 105.571 67.3064 105.198 68.4371 104.007L69.1968 103.172L69.3028 88.7954C69.3735 79.1103 69.2675 74.17 69.0378 73.7435C68.2074 72.2152 67.3241 72.0908 57.2713 71.9842C50.3103 71.9308 47.6955 72.0019 47.4482 72.304ZM60.4514 80.2476C60.4868 80.5853 60.4868 84.1217 60.5221 88.1379C60.5221 92.1541 60.6281 95.1574 60.6811 94.8375C60.9461 93.8424 61.4408 94.2333 61.4408 95.4595C61.4408 96.4192 61.3348 96.6146 60.9108 96.4547C60.5398 96.3303 60.4514 96.4192 60.5751 96.8457C60.7341 97.3432 60.5398 97.4143 58.561 97.3077C57.3066 97.2366 56.1936 96.9701 55.9286 96.739C55.3985 96.2059 55.3632 95.2463 55.8579 95.2463C56.0876 95.2463 56.1582 92.9183 56.0169 87.6581C55.9462 83.4819 55.9462 79.9633 56.0522 79.8744C56.1759 79.7678 57.2006 79.679 58.3667 79.679C60.1334 79.6967 60.4514 79.7856 60.4514 80.2476ZM75.6454 72.1974C75.0801 72.8549 75.2744 80.2121 75.8751 80.0877C76.0694 80.0522 76.2638 80.2476 76.2638 80.5142C76.2638 80.7808 76.0694 80.9762 75.8751 80.9052C75.5748 80.8696 75.4158 81.4027 75.3451 82.5934C75.2744 83.9795 75.3451 84.3172 75.6808 84.1217C76.0164 83.9262 76.0164 83.9618 75.7514 84.3527C75.2214 85.0458 74.8681 122.596 75.3628 124.817C75.6631 126.008 76.0164 126.647 76.8468 127.234L77.9422 128.087L86.5816 127.963C96.2103 127.838 96.8994 127.66 97.9418 125.635C98.6661 124.213 98.9665 113.035 98.7898 93.5758C98.7191 85.65 98.6661 77.7597 98.6661 76.107C98.6661 74.1878 98.5424 72.9616 98.2951 72.7839C98.0654 72.6772 97.8358 72.7483 97.7651 72.9438C97.6061 73.5125 97.0407 73.4414 97.0407 72.8372C97.0407 72.4462 96.5107 72.3396 94.2316 72.3396C89.7087 72.3396 90.0444 71.2378 90.0797 86.5208C90.1151 93.5758 90.2034 101.342 90.3094 103.723C90.4684 106.868 90.4154 108.13 90.1504 108.13C89.5497 108.13 89.7264 109.392 90.3801 109.747C90.7688 110.014 90.8394 110.174 90.5391 110.352C90.3094 110.547 90.1151 112.182 90.0444 115.15C89.9384 118.988 89.8501 119.788 89.3554 120.285C88.79 120.854 88.737 120.854 88.3307 120.285C87.836 119.664 86.4579 119.557 85.4685 120.09C84.4792 120.588 83.4544 119.628 83.7195 118.437C83.9491 117.442 84.1081 89.9328 83.9491 79.9633L83.8255 73.1393L82.4121 72.3751C81.458 71.842 80.769 71.6465 80.3626 71.842C79.7443 72.1086 77.5358 72.1086 76.5818 71.8065C76.2815 71.8065 75.8751 71.9308 75.6454 72.1974ZM105.009 72.1619C104.638 72.6595 104.514 84.6904 104.885 86.3075C105.044 86.9295 105.044 88.4933 104.956 89.7906C104.832 91.0879 104.85 92.2785 105.026 92.5096C105.45 93.0427 105.026 94.2689 104.426 94.2689C104.161 94.2689 104.037 94.4288 104.125 94.6065C104.231 94.802 104.09 95.1752 103.825 95.4595C103.224 96.0637 103.065 100.702 103.631 101.057C103.825 101.164 103.966 101.555 103.966 101.893C103.966 102.23 104.125 102.55 104.337 102.621C104.638 102.728 104.726 105.696 104.726 113.497C104.691 119.735 104.832 124.426 105.026 124.675C105.185 124.87 105.185 125.137 105.062 125.208C104.903 125.315 104.832 126.008 104.903 126.736L105.026 128.087L113.825 127.98C126.934 127.874 126.174 128.816 126.21 112.502C126.21 101.537 126.174 101.04 125.556 100.364C123.577 98.214 123.348 97.8053 123.878 97.521C125.203 96.7923 125.521 95.264 125.591 90.2882C125.627 87.6403 125.697 82.8244 125.75 79.5901C125.856 74.0278 125.821 73.6546 125.15 73.0326C124.125 72.0019 122.588 71.8065 113.648 71.7709C107.412 71.7709 105.274 71.842 105.009 72.1619ZM117.341 79.7323C117.535 80.0699 117.535 82.5756 117.341 92.2963C117.305 94.7132 117.146 94.8553 114.673 94.4466L113.259 94.2511L113.065 91.3722C112.959 89.7728 112.871 88.2623 112.835 87.9957C112.835 87.7292 112.941 85.6678 113.065 83.4286L113.295 79.3769H115.203C116.245 79.3591 117.199 79.519 117.341 79.7323ZM117.199 103.03C117.323 103.225 117.464 105.784 117.464 108.699C117.464 111.613 117.5 115.363 117.5 117.051C117.535 118.704 117.464 120.232 117.341 120.392C117.076 120.819 113.648 120.659 113.083 120.161C112.712 119.859 112.659 119.468 112.853 118.562C113.012 117.904 113.153 114.155 113.153 110.209C113.153 104.043 113.224 103.012 113.683 102.692C114.302 102.23 116.846 102.461 117.199 103.03Z" fill="url(#paint1_linear)"></path></g><defs><linearGradient id="paint0_linear" x1="100.012" y1="54.01" x2="100.012" y2="146.047" gradientUnits="userSpaceOnUse"><stop stop-color="#FDC920"></stop><stop offset="1" stop-color="#FB9102"></stop></linearGradient><linearGradient id="paint1_linear" x1="99.9894" y1="71.6263" x2="99.9894" y2="128.447" gradientUnits="userSpaceOnUse"><stop stop-color="#FDC920"></stop><stop offset="1" stop-color="#FB9102"></stop></linearGradient><clipPath id="clip0"><rect width="158" height="92" fill="white" transform="translate(21 54)"></rect></clipPath></defs></svg> 